<?xml version="1.0" encoding="utf-8"?>
<!-- Generator: Adobe Illustrator 22.0.1, SVG Export Plug-In . SVG Version: 6.00 Build 0)  -->
<svg version="1.0" id="Layer_1" xmlns="http://www.w3.org/2000/svg" xmlns:xlink="http://www.w3.org/1999/xlink" x="0px" y="0px"
	 viewBox="0 0 850 420" style="enable-background:new 0 0 850 420;" xml:space="preserve">
<style type="text/css">
	.st0{fill:#8F8F8F;}
</style>
<g>
	<path class="st0" d="M408.6,420c-0.3,0-0.5-0.2-0.5-0.3c0.2-2.1,0.2-4.3,0.5-6.4c1.5-11.1,3.1-22.2,4.6-33.3
		c1.5-11.1,3-22.2,4.5-33.3c1.3-9.7,2.7-19.4,4.1-29.1c1.3-9.2,2.5-18.5,3.8-27.7c0.1-0.5,0-1-0.1-1.7c0-0.2-0.2-0.3-0.4-0.3
		c-1-0.1-1.8-0.1-2.7-0.1c-69.4,0-138.9,0-208.3,0c-0.4,0-0.9,0-1.3,0c-1.4-0.1-2.1,0.6-2.4,1.7c-0.9,3.2-1.9,6.4-2.8,9.6
		c-4.3,14.7-8.5,29.5-12.7,44.2c-5.2,18-10.3,36-15.7,54c-2.1,7-4.7,14-7,21c0,0,0,0,0,0c-1.1,0-0.8,0-2-0.1
		c-0.5-3.4-1-6.8-1.6-10.2c-2.1-12.1-4.2-24.2-6.3-36.2c-2.8-16.2-5.7-32.4-8.5-48.5c-2.6-15.1-5.2-30.2-7.8-45.3
		c-2.2-12.9-4.5-25.7-6.7-38.6c-2.6-15-5.2-30-7.8-45.1c-2-11.6-4-23.2-6-34.8c-0.4-2.4-0.8-2.7-3.7-2.8c-8.5-0.2-17.1-0.4-25.6-0.6
		c-13.6-0.3-27.1-0.7-40.7-1c-8.6-0.2-17.3-0.6-25.9-0.8c-9.5-0.3-19-0.6-28.6-1c-0.3,0-0.7-0.1-1-0.3c2.1-0.2,4.2-0.4,6.3-0.5
		c4.3-0.2,8.6-0.4,12.9-0.6c5.5-0.3,11-0.6,16.5-0.8c2.4-0.1,4.8-0.1,7.2-0.2c29.6,0,59.2,0,88.8,0c4.8,0,4,0.3,4.5,3.4
		c2.5,14.1,4.9,28.2,7.4,42.3c2,11.6,4.1,23.2,6.1,34.8c2.7,15.3,5.3,30.7,8,46c2.6,14.9,5.2,29.9,7.8,44.8
		c2.6,15.2,5.2,30.4,7.9,45.5c0.2,1.3,0.5,2.6,1.2,3.9c0.2-0.6,0.5-1.2,0.7-1.8c4.2-14.7,8.4-29.3,12.7-44
		c5.4-18.6,10.8-37.2,16.2-55.8c6.2-21.4,12.3-42.9,18.5-64.3c6.4-22.1,12.8-44.2,19.2-66.3c6.6-23,13.3-46,19.9-69.1
		c6.5-22.5,13-45,19.5-67.5C282,0.1,282.1,0,285,0c0.9,0,1.8,0,2.7,0c105.8,0,211.6,0,317.5,0c7.3,0,14.6,0,21.9,0.1
		c13.2,0.3,26.4,0.6,39.6,1c5.9,0.1,11.9,0.3,17.8,0.5c11.1,0.4,22.1,0.8,33.1,1.2c0.4,0,0.7,0,1.1,0c10,0.2,20,0.3,29.9,0.6
		c9.8,0.3,19.6,0.6,29.4,0.9c0.3,0,0.6,0.1,0.9,0.4c-0.3,0-0.7,0.1-1,0.1C772.6,5,767.3,5.1,762,5.3c-10.5,0.2-21,0.4-31.6,0.6
		c-13,0.3-26.1,0.6-39.1,1c-5.8,0.1-11.7,0.3-17.5,0.4c-11.1,0.4-22.3,0.8-33.4,1.2c-0.4,0-0.9,0-1.3,0c-11,0.2-21.9,0.4-32.9,0.6
		c-0.5,0-1,0-1.5,0.1c-3.1,0.3-3.4,0.6-3.1,3.3c0.1,1.3,0.4,2.6,0.5,4c1.5,11,3.1,21.9,4.6,32.9c1.5,11,3,22.1,4.5,33.1
		c1.5,11.2,3.1,22.4,4.7,33.6c0.3,2.2,0.5,4.4,0.8,6.5c0.3,2.1,0.6,2.4,3,2.4c3.8,0.1,7.6,0,11.3,0.1c14.2,0.2,28.4,0.4,42.6,0.6
		c9.7,0.1,19.4,0.3,29.1,0.5c10.4,0.2,20.9,0.3,31.3,0.5c9.4,0.1,18.7,0.3,28.1,0.4c16.2,0.3,32.4,0.6,48.6,1c0.2,0,0.3,0.1,0.5,0.4
		c-1.7,0.2-3.5,0.4-5.2,0.4c-6.8,0.1-13.7,0.1-20.5,0.2c-11.6,0.1-23.2,0.3-34.8,0.5c-9,0.1-18,0.3-27,0.4
		c-11.2,0.2-22.3,0.3-33.5,0.5c-9.1,0.1-18.2,0.3-27.2,0.4c-10.9,0.2-21.8,0.3-32.6,0.5c-3.3,0.1-6.6,0.2-10,0.3
		c-0.5,0-1,0.1-1.8,0.2c-0.2,0-0.4,0.2-0.4,0.3c0,0.9-0.1,1.7,0,2.5c1.4,10,2.7,19.9,4.1,29.9c1.5,11.1,3.1,22.2,4.6,33.3
		c1.4,9.9,2.7,19.8,4,29.6c1.1,8.2,2.3,16.5,3.5,24.7c1,7.4,2,14.8,3,22.2c0,0.2,0,0.3,0,0.5c0.4,3.2,0.6,3.3,4.3,3.4
		c11.2,0.2,22.5,0.4,33.7,0.6c8.4,0.2,16.7,0.3,25.1,0.4c10.2,0.2,20.3,0.3,30.5,0.5c8.4,0.1,16.7,0.3,25.1,0.4
		c10,0.2,20,0.3,29.9,0.5c8.5,0.1,16.9,0.3,25.4,0.4c9.9,0.2,19.8,0.3,29.7,0.5c2.9,0.1,5.7,0.4,8.6,0.8c-0.9,0-1.8,0-2.6,0
		c-5.8,0-11.7,0.1-17.5,0.1c-10.5,0.1-21,0.3-31.6,0.5c-7.7,0.1-15.5,0.3-23.2,0.4c-15.4,0.3-30.7,0.7-46.1,1
		c-7.6,0.2-15.1,0.3-22.7,0.4c-10.7,0.2-21.4,0.3-32.1,0.5c-9,0.1-18,0.3-27,0.5c-2.3,0.1-4.7,0.3-7.3,0.4c-0.3,0-0.4,0.2-0.4,0.4
		c0.4,3,0.7,5.8,1.1,8.5c1.2,8.7,2.4,17.4,3.6,26.1c1,6.9,1.9,13.8,2.9,20.8c1.2,8.6,2.4,17.1,3.6,25.7c1.4,10,2.7,19.9,4.1,29.9
		c0.9,6.8,1.9,13.5,2.8,20.3c0.1,0.5,0,1,0,1.5c0,0.2-0.2,0.3-0.5,0.3h-13.2c-0.2,0-0.4-0.1-0.5-0.3c-0.2-1.8-0.5-3.5-0.7-5.3
		c-1.2-9.5-2.4-19-3.6-28.5c-1.2-9.6-2.3-19.2-3.4-28.7c-1.3-10.9-2.7-21.8-4.1-32.7c-1.5-12-2.9-24-4.4-36c-0.2-1.8-0.4-2-2.5-2
		c-3.6,0-7.2,0.2-10.8,0.3c-10.1,0.2-20.1,0.5-30.2,0.5c-46.6,0.1-93.2,0.1-139.8,0.1c-0.9,0-1.8,0-2.7,0c-2.7,0-3,0.2-3.3,2.4
		c-0.3,1.9-0.4,3.7-0.7,5.6c-0.8,6.8-1.7,13.5-2.5,20.3c-1,7.9-1.9,15.7-2.9,23.6c-0.8,6.6-1.6,13.2-2.4,19.9c-1,8.2-2,16.3-3,24.5
		c-0.8,6.8-1.7,13.5-2.5,20.3c-0.6,5.2-1.2,10.4-1.9,15.6c0,0.2-0.2,0.3-0.5,0.3H408.6z M447.2,133.1c0-0.2-0.2-0.3-0.4-0.4
		c-1.2-0.1-2.2-0.1-3.1-0.1c-61.4,0-122.7,0-184.1,0c-0.6,0-1.3,0-1.9,0c-1.2,0-2.1,0.4-2.3,1.5c-0.2,0.6-0.4,1.2-0.6,1.8
		c-1.9,6.5-3.8,13.1-5.7,19.6c-3.9,13.4-7.7,26.7-11.6,40.1c-4.3,14.7-8.6,29.5-12.8,44.2c-3.3,11.5-6.6,22.9-9.9,34.4
		c-0.2,0.6-0.3,1.3-0.4,2.1c0,0.2,0.2,0.4,0.4,0.4c1.4,0.1,2.6,0.1,3.8,0.1c68.1,0,136.2,0,204.3,0c0.4,0,0.9,0,1.3,0
		c3,0,3.1-0.1,3.5-2.7c0.5-3,0.8-6.1,1.2-9.1c1.3-9.7,2.6-19.4,4-29.2c1.3-9.7,2.8-19.4,4.1-29.1c1.5-11.1,3-22.2,4.5-33.4
		c1.5-11,3.1-21.9,4.6-32.9C446.6,138.3,446.8,135.9,447.2,133.1z M439.8,276.5c0.4,0.2,0.6,0.4,0.7,0.4
		c56.4,0.5,112.8-0.6,169.2,0.9c4.6,0.1,9.2,0.1,13.8,0.2c0.5,0,1.1-0.1,1.6-0.1c0.1,0,0.2-0.1,0.2-0.1c0.1,0,0.1-0.1,0.4-0.3
		c0-0.4,0.1-0.9,0-1.5c-0.6-5.2-1.2-10.4-1.8-15.7c-1.2-9.5-2.4-19-3.6-28.5c-1.2-9.6-2.3-19.2-3.4-28.7
		c-1.3-10.9-2.8-21.8-4.1-32.7c-1.5-12.1-2.9-24.3-4.4-36.4c-0.2-1.9-0.5-2.1-2.7-2.1c-3.6,0-7.2,0.3-10.8,0.3
		c-19.1,0.2-38.1,0.4-57.2,0.5c-16.4,0.1-32.7,0-49.1,0c-9.3,0-18.5,0-27.8,0c-3.3,0-3.4,0.1-3.9,3c0,0.1,0,0.2,0,0.2
		c-1.3,10.4-2.6,20.7-3.8,31.1c-1.3,11-2.6,22-4,32.9c-1.5,12.5-3.1,24.9-4.7,37.4c-1.4,11.7-2.9,23.4-4.3,35
		C439.9,273.7,439.9,275.2,439.8,276.5z M258.5,123.8c0,0.2,0.2,0.4,0.5,0.4h3.7c60.4,0,120.7,0,181.1,0c0.7,0,1.4,0,2.2,0
		c2.4-0.1,2.5-0.1,2.9-2.2c0.1-0.3,0.1-0.6,0.2-0.9c1.3-9.2,2.5-18.3,3.8-27.5c1.5-11.3,3-22.6,4.6-33.8c2-14.8,4.2-29.7,6.2-44.5
		c0.2-1.4,0.3-2.9,0.5-4.6c0-0.2-0.2-0.3-0.4-0.3c-1-0.1-1.8-0.2-2.6-0.2c-55.5,0-111,0-166.5,0c-3.2,0-3.2,0.1-4,2.7
		c-2.4,8.3-4.8,16.5-7.2,24.8c-8.1,27.9-16.1,55.8-24.1,83.6C258.8,122,258.7,122.8,258.5,123.8z M606.4,124.4
		c0.2,0,0.4-0.1,0.5-0.3c0-0.3,0.1-0.5,0.1-0.8c-0.9-7.5-1.8-14.9-2.7-22.4c-1-7.9-2-15.9-2.9-23.8c-0.8-6.6-1.6-13.2-2.4-19.9
		c-0.8-6.5-1.6-12.9-2.4-19.4c-1.1-8.7-2.1-17.4-3.2-26.1c-0.3-2-0.3-2.1-2.6-2.1c-2.9,0-5.7,0.3-8.6,0.3
		c-6.7,0.1-13.5,0.2-20.2,0.2c-28.5,0-57,0-85.5,0c-0.7,0-1.4,0-2.2,0c-1.2,0-1.8,0.5-2,1.5c-0.1,0.5-0.1,1.1-0.2,1.6
		c-0.8,6.5-1.6,13.1-2.4,19.6c-1,8.3-2,16.5-3,24.7c-0.8,6.5-1.5,12.9-2.3,19.4c-1,7.9-2,15.9-3,23.8c-0.9,6.8-1.7,13.7-2.5,20.5
		c-0.1,0.7,0,1.5,0,2.4c0,0.2,0.2,0.3,0.5,0.3C508.3,124.2,557.2,124.3,606.4,124.4z"/>
</g>
</svg>
